<?xml version="1.0" encoding="UTF-8"?>
<svg width="253px" height="55px" viewBox="0 0 253 55" version="1.1" xmlns="http://www.w3.org/2000/svg" xmlns:xlink="http://www.w3.org/1999/xlink">
    <!-- Generator: Sketch 61.2 (89653) - https://sketch.com -->
    <title>logoa</title>
    <desc>Created with Sketch.</desc>
    <defs>
        <linearGradient x1="-1.11022302e-14%" y1="50%" x2="100%" y2="50%" id="linearGradient-1">
            <stop stop-color="#8879FF" offset="0%"></stop>
            <stop stop-color="#5043FF" offset="100%"></stop>
        </linearGradient>
    </defs>
    <g id="Page-1" stroke="none" stroke-width="1" fill="none" fill-rule="evenodd">
        <g id="Desktop-HD" transform="translate(-139.000000, -59.000000)" fill-rule="nonzero">
            <g id="logoa" transform="translate(139.960000, 59.560000)">
                <path d="M25.8,40.44 L25.8,32.94 L9.18,32.94 L9.18,23.34 L24.06,23.34 L24.06,15.9 L9.18,15.9 L9.18,7.5 L24.96,7.5 L24.96,0 L-1.42108547e-14,0 L-1.42108547e-14,40.44 L25.8,40.44 Z M39.3,41.1 C42.78,41.1 45.78,39.84 47.7,37.5 L47.88,37.5 L48.42,40.44 L56.64,40.44 C56.34,38.82 56.22,36.12 56.22,33.3 L56.22,23.1 C56.22,16.2 53.1,10.44 43.32,10.44 C37.98,10.44 33.96,11.88 31.92,13.02 L33.6,18.9 C35.52,17.7 38.7,16.68 41.7,16.68 C46.2,16.68 47.04,18.9 47.04,20.46 L47.04,20.88 C36.66,20.82 29.82,24.48 29.82,32.1 C29.82,36.78 33.36,41.1 39.3,41.1 Z M42.42,34.68 C40.38,34.68 38.82,33.54 38.82,31.2 C38.82,27.66 42.54,26.52 47.34,26.58 L47.34,29.76 C47.34,30.3 47.28,30.84 47.16,31.32 C46.56,33.18 44.7,34.68 42.42,34.68 Z M71.22,41.04 C79.62,41.04 83.94,37.02 83.94,31.56 C83.88,27.24 81.54,24.42 75.96,22.5 C72.36,21.24 71.22,20.52 71.22,19.14 C71.22,17.64 72.48,16.74 74.7,16.74 C77.22,16.74 79.74,17.7 81.06,18.42 L82.68,12.12 C80.88,11.22 77.82,10.44 74.4,10.44 C67.14,10.44 62.46,14.58 62.46,20.04 C62.4,23.52 64.74,26.82 70.8,28.86 C74.22,30 75.12,30.72 75.12,32.22 C75.12,33.72 73.98,34.68 71.22,34.68 C68.52,34.68 65.04,33.48 63.36,32.46 L61.74,39 C63.96,40.2 67.38,41.04 71.22,41.04 Z M91.02,53.7 C93.3,53.4 96.66,52.44 99.84,49.68 C103.14,46.74 105.96,42.06 110.16,30.42 L117,11.1 L107.22,11.1 L103.62,25.5 C103.2,27.18 102.72,29.4 102.3,30.96 L102.12,30.96 C101.76,29.4 101.16,27.24 100.68,25.5 L96.3,11.1 L86.16,11.1 L96.9,37.92 C97.26,38.64 97.32,39.12 97.32,39.42 C97.32,39.84 97.14,40.32 96.84,40.74 C95.94,42.24 94.44,43.68 93.06,44.4 C91.68,45.24 90.24,45.78 89.1,45.96 L91.02,53.7 Z" id="Easy" fill="url(#linearGradient-1)"></path>
                <path d="M126.1,41.18 L126.1,26.72 C126.94,26.84 128.02,26.9 129.22,26.9 C134.62,26.9 139.24,25.58 142.36,22.64 C144.76,20.36 146.08,17 146.08,13.04 C146.08,9.08 144.34,5.72 141.76,3.68 C139.06,1.52 135.04,0.44 129.4,0.44 C123.82,0.44 119.86,0.8 117.04,1.28 L117.04,41.18 L126.1,41.18 Z M129.16,19.88 C127.84,19.88 126.88,19.82 126.1,19.64 L126.1,7.7 C126.76,7.52 128.02,7.34 129.88,7.34 C134.44,7.34 137.02,9.56 137.02,13.28 C137.02,17.42 134.02,19.88 129.16,19.88 Z M160.18,41.18 L160.18,26.3 C160.18,25.58 160.24,24.86 160.36,24.26 C160.96,21.44 163.24,19.64 166.6,19.64 C167.62,19.64 168.4,19.76 169.06,19.88 L169.06,11.3 C168.4,11.18 167.98,11.18 167.14,11.18 C164.32,11.18 160.72,12.98 159.22,17.24 L158.98,17.24 L158.68,11.84 L150.82,11.84 C150.94,14.36 151.06,17.18 151.06,21.5 L151.06,41.18 L160.18,41.18 Z M187.36,41.78 C191.32,41.78 194.98,41.18 197.98,39.98 L196.78,33.8 C194.32,34.58 191.8,35 188.68,35 C184.42,35 180.7,33.2 180.4,29.42 L199.3,29.42 C199.42,28.76 199.6,27.38 199.6,25.82 C199.6,18.56 196,11.18 186.52,11.18 C176.32,11.18 171.7,19.4 171.7,26.84 C171.7,36.02 177.4,41.78 187.36,41.78 Z M191.14,23.18 L180.34,23.18 C180.58,20.72 182.14,17.24 185.98,17.24 C190.18,17.24 191.14,20.96 191.14,23.18 Z M212.86,41.78 C221.26,41.78 225.58,37.76 225.58,32.3 C225.52,27.98 223.18,25.16 217.6,23.24 C214,21.98 212.86,21.26 212.86,19.88 C212.86,18.38 214.12,17.48 216.34,17.48 C218.86,17.48 221.38,18.44 222.7,19.16 L224.32,12.86 C222.52,11.96 219.46,11.18 216.04,11.18 C208.78,11.18 204.1,15.32 204.1,20.78 C204.04,24.26 206.38,27.56 212.44,29.6 C215.86,30.74 216.76,31.46 216.76,32.96 C216.76,34.46 215.62,35.42 212.86,35.42 C210.16,35.42 206.68,34.22 205,33.2 L203.38,39.74 C205.6,40.94 209.02,41.78 212.86,41.78 Z M238.9,41.78 C247.3,41.78 251.62,37.76 251.62,32.3 C251.56,27.98 249.22,25.16 243.64,23.24 C240.04,21.98 238.9,21.26 238.9,19.88 C238.9,18.38 240.16,17.48 242.38,17.48 C244.9,17.48 247.42,18.44 248.74,19.16 L250.36,12.86 C248.56,11.96 245.5,11.18 242.08,11.18 C234.82,11.18 230.14,15.32 230.14,20.78 C230.08,24.26 232.42,27.56 238.48,29.6 C241.9,30.74 242.8,31.46 242.8,32.96 C242.8,34.46 241.66,35.42 238.9,35.42 C236.2,35.42 232.72,34.22 231.04,33.2 L229.42,39.74 C231.64,40.94 235.06,41.78 238.9,41.78 Z" id="Press" fill="#ffffff"></path>
            </g>
        </g>
    </g>
</svg>
