<?xml version="1.0" encoding="UTF-8"?>
<svg width="261px" height="44px" viewBox="0 0 261 44" version="1.1" xmlns="http://www.w3.org/2000/svg"
     xmlns:xlink="http://www.w3.org/1999/xlink">
    <!-- Generator: Sketch 61.2 (89653) - https://sketch.com -->
    <title>logoa</title>
    <desc>Created with Sketch.</desc>
    <g id="Page-1" stroke="none" stroke-width="1" fill="none" fill-rule="evenodd">
        <g id="Desktop-HD" transform="translate(-358.000000, -428.000000)" fill-rule="nonzero">
            <g id="logoa" transform="translate(358.980000, 428.000000)">
                <path d="M15.66,30.6 C19.62,30.6 23.28,30 26.28,28.8 L25.08,22.62 C22.62,23.4 20.1,23.82 16.98,23.82 C12.72,23.82 9,22.02 8.7,18.24 L27.6,18.24 C27.72,17.58 27.9,16.2 27.9,14.64 C27.9,7.38 24.3,0 14.82,0 C4.62,0 0,8.22 0,15.66 C0,24.84 5.7,30.6 15.66,30.6 Z M19.44,12 L8.64,12 C8.88,9.54 10.44,6.06 14.28,6.06 C18.48,6.06 19.44,9.78 19.44,12 Z M40.92,30.66 C44.4,30.66 47.4,29.4 49.32,27.06 L49.5,27.06 L50.04,30 L58.26,30 C57.96,28.38 57.84,25.68 57.84,22.86 L57.84,12.66 C57.84,5.76 54.72,0 44.94,0 C39.6,0 35.58,1.44 33.54,2.58 L35.22,8.46 C37.14,7.26 40.32,6.24 43.32,6.24 C47.82,6.24 48.66,8.46 48.66,10.02 L48.66,10.44 C38.28,10.38 31.44,14.04 31.44,21.66 C31.44,26.34 34.98,30.66 40.92,30.66 Z M44.04,24.24 C42,24.24 40.44,23.1 40.44,20.76 C40.44,17.22 44.16,16.08 48.96,16.14 L48.96,19.32 C48.96,19.86 48.9,20.4 48.78,20.88 C48.18,22.74 46.32,24.24 44.04,24.24 Z M72.84,30.6 C81.24,30.6 85.56,26.58 85.56,21.12 C85.5,16.8 83.16,13.98 77.58,12.06 C73.98,10.8 72.84,10.08 72.84,8.7 C72.84,7.2 74.1,6.3 76.32,6.3 C78.84,6.3 81.36,7.26 82.68,7.98 L84.3,1.68 C82.5,0.78 79.44,0 76.02,0 C68.76,0 64.08,4.14 64.08,9.6 C64.02,13.08 66.36,16.38 72.42,18.42 C75.84,19.56 76.74,20.28 76.74,21.78 C76.74,23.28 75.6,24.24 72.84,24.24 C70.14,24.24 66.66,23.04 64.98,22.02 L63.36,28.56 C65.58,29.76 69,30.6 72.84,30.6 Z M92.64,43.26 C94.92,42.96 98.28,42 101.46,39.24 C104.76,36.3 107.58,31.62 111.78,19.98 L118.62,0.66 L108.84,0.66 L105.24,15.06 C104.82,16.74 104.34,18.96 103.92,20.52 L103.74,20.52 C103.38,18.96 102.78,16.8 102.3,15.06 L97.92,0.66 L87.78,0.66 L98.52,27.48 C98.88,28.2 98.94,28.68 98.94,28.98 C98.94,29.4 98.76,29.88 98.46,30.3 C97.56,31.8 96.06,33.24 94.68,33.96 C93.3,34.8 91.86,35.34 90.72,35.52 L92.64,43.26 Z"
                      id="easy" fill="#000000"></path>
                <path d="M131.8,41.88 L131.8,27.3 L131.92,27.3 C133.24,29.22 136,30.66 139.54,30.66 C146.08,30.66 152.86,25.62 152.86,14.94 C152.86,5.58 147.1,0 140.68,0 C136.42,0 133.06,1.62 130.9,4.74 L130.78,4.74 L130.36,0.66 L122.44,0.66 C122.56,3.36 122.68,6.66 122.68,10.5 L122.68,41.88 L131.8,41.88 Z M137.32,23.64 C134.68,23.64 132.58,21.78 131.98,19.32 C131.86,18.78 131.8,18.12 131.8,17.4 L131.8,13.38 C131.8,12.84 131.86,12.24 131.98,11.76 C132.58,9.06 134.86,7.14 137.44,7.14 C141.52,7.14 143.62,10.68 143.62,15.36 C143.62,20.34 141.28,23.64 137.32,23.64 Z M167.68,30 L167.68,15.12 C167.68,14.4 167.74,13.68 167.86,13.08 C168.46,10.26 170.74,8.46 174.1,8.46 C175.12,8.46 175.9,8.58 176.56,8.7 L176.56,0.12 C175.9,0 175.48,0 174.64,0 C171.82,0 168.22,1.8 166.72,6.06 L166.48,6.06 L166.18,0.66 L158.32,0.66 C158.435,3.075 158.55,5.76552083 158.559384,9.78772569 L158.56,30 L167.68,30 Z M194.86,30.6 C198.82,30.6 202.48,30 205.48,28.8 L204.28,22.62 C201.82,23.4 199.3,23.82 196.18,23.82 C191.92,23.82 188.2,22.02 187.9,18.24 L206.8,18.24 C206.92,17.58 207.1,16.2 207.1,14.64 C207.1,7.38 203.5,0 194.02,0 C183.82,0 179.2,8.22 179.2,15.66 C179.2,24.84 184.9,30.6 194.86,30.6 Z M198.64,12 L187.84,12 C188.08,9.54 189.64,6.06 193.48,6.06 C197.68,6.06 198.64,9.78 198.64,12 Z M220.36,30.6 C228.76,30.6 233.08,26.58 233.08,21.12 C233.02,16.8 230.68,13.98 225.1,12.06 C221.5,10.8 220.36,10.08 220.36,8.7 C220.36,7.2 221.62,6.3 223.84,6.3 C226.36,6.3 228.88,7.26 230.2,7.98 L231.82,1.68 C230.02,0.78 226.96,0 223.54,0 C216.28,0 211.6,4.14 211.6,9.6 C211.54,13.08 213.88,16.38 219.94,18.42 C223.36,19.56 224.26,20.28 224.26,21.78 C224.26,23.28 223.12,24.24 220.36,24.24 C217.66,24.24 214.18,23.04 212.5,22.02 L210.88,28.56 C213.1,29.76 216.52,30.6 220.36,30.6 Z M246.4,30.6 C254.8,30.6 259.12,26.58 259.12,21.12 C259.06,16.8 256.72,13.98 251.14,12.06 C247.54,10.8 246.4,10.08 246.4,8.7 C246.4,7.2 247.66,6.3 249.88,6.3 C252.4,6.3 254.92,7.26 256.24,7.98 L257.86,1.68 C256.06,0.78 253,0 249.58,0 C242.32,0 237.64,4.14 237.64,9.6 C237.58,13.08 239.92,16.38 245.98,18.42 C249.4,19.56 250.3,20.28 250.3,21.78 C250.3,23.28 249.16,24.24 246.4,24.24 C243.7,24.24 240.22,23.04 238.54,22.02 L236.92,28.56 C239.14,29.76 242.56,30.6 246.4,30.6 Z"
                      id="press" fill="#5043FF"></path>
            </g>
        </g>
    </g>
</svg>
